# File created by Blade
# Date/Time:  Tue Jan 27 18:05:51 2015
#---------------------------------------------------------
:version 1.10
:name HOM
:units
  mass 1.0
  length 1.000000
  angle deg
:documentation
     Acclaim Skeleton File
:root
   axis xyz
   order TX TY TZ RX RY RZ
   position 0.000000 0.000000 0.000000
   orientation 0 0 0
:bonedata
   begin
      id 1
      name Spine_dum
      direction 0.000000 1.000000 0.000000
      length 5.195262
      axis 0.0 0.0 0.0 xyz
   end
   begin
      id 2
      name LeftUpLeg_dum
      direction 1.000000 0.000000 0.000000
      length 3.351363
      axis 0.0 0.0 0.0 xyz
   end
   begin
      id 3
      name RightUpLeg_dum
      direction -1.000000 0.000000 0.000000
      length 3.351363
      axis 0.0 0.0 0.0 xyz
   end
   begin
      id 4
      name Spine
      direction 0.000000 1.000000 0.000000
      length 0.000000
      axis 0.0 0.0 0.0 xyz
      dof rx ry rz
   end
   begin
      id 5
      name Spine_dum1
      direction 0.000000 1.000000 0.000000
      length 15.653875
      axis 0.0 0.0 0.0 xyz
   end
   begin
      id 6
      name Spine_dum2
      direction 0.000000 1.000000 0.000000
      length 10.329768
      axis 0.0 0.0 0.0 xyz
   end
   begin
      id 7
      name Spine_dum3
      direction 0.000000 1.000000 0.000000
      length 10.329768
      axis 0.0 0.0 0.0 xyz
   end
   begin
      id 8
      name Head
      direction 0.000000 1.000000 0.000000
      length 4.527550
      axis 0.0 0.0 0.0 xyz
      dof rx ry rz
   end
   begin
      id 9
      name LeftShoulder
      direction 1.000000 0.000000 0.000000
      length 6.996006
      axis 0.0 0.0 -90.0 xyz
      dof rx ry rz
   end
   begin
      id 10
      name LeftArm
      direction 1.000000 0.000000 0.000000
      length 10.209302
      axis 0.0 0.0 -90.0 xyz
      dof rx ry rz
   end
   begin
      id 11
      name LeftForeArm
      direction 1.000000 0.000000 0.000000
      length 8.563163
      axis 0.0 0.0 -90.0 xyz
      dof ry rz rx
   end
   begin
      id 12
      name LeftHand
      direction 0.000000 0.000000 0.000000
      length 0.000000
      axis 0.0 0.0 -90.0 xyz
      dof rx ry rz
   end
   begin
      id 13
      name LeftHand_dum1
      direction 0.000000 0.000000 0.000000
      length 0.000000
      axis 0.0 0.0 -90.0 xyz
   end
   begin
      id 14
      name LeftHand_dum2
      direction 1.000000 0.000000 0.000000
      length 3.937000
      axis 0.0 0.0 -90.0 xyz
   end
   begin
      id 15
      name LeftHandThumb1
      direction 0.000000 0.000000 1.000000
      length 3.937000
      axis 0.0 0.0 -90.0 xyz
      dof rx rz ry
   end
   begin
      id 16
      name RightShoulder
      direction -1.000000 0.000000 0.000000
      length 6.996006
      axis 0.0 0.0 90.0 xyz
      dof rx ry rz
   end
   begin
      id 17
      name RightArm
      direction -1.000000 0.000000 0.000000
      length 10.209302
      axis 0.0 0.0 90.0 xyz
      dof rx ry rz
   end
   begin
      id 18
      name RightForeArm
      direction -1.000000 0.000000 0.000000
      length 8.563163
      axis 0.0 0.0 90.0 xyz
      dof ry rz rx
   end
   begin
      id 19
      name RightHand
      direction 0.000000 0.000000 0.000000
      length 0.000000
      axis 0.0 0.0 90.0 xyz
      dof rx ry rz
   end
   begin
      id 20
      name RightHand_dum1
      direction 0.000000 0.000000 0.000000
      length 0.000000
      axis 0.0 0.0 90.0 xyz
   end
   begin
      id 21
      name RightHand_dum2
      direction -1.000000 0.000000 0.000000
      length 3.937000
      axis 0.0 0.0 90.0 xyz
   end
   begin
      id 22
      name RightHandThumb1
      direction 0.000000 0.000000 1.000000
      length 3.937000
      axis 0.0 0.0 90.0 xyz
      dof rx rz ry
   end
   begin
      id 23
      name LeftUpLeg
      direction 0.000000 -1.000000 0.000000
      length 16.346831
      axis 0.0 0.0 0.0 xyz
      dof rx ry rz
   end
   begin
      id 24
      name LeftLeg
      direction 0.000000 -1.000000 0.000000
      length 13.959795
      axis 0.0 0.0 0.0 xyz
      dof rx ry rz
   end
   begin
      id 25
      name LeftFoot
      direction 0.000000 -0.258819 0.965926
      length 5.165550
      axis 15.0 0.0 0.0 xyz
      dof rx ry rz
   end
   begin
      id 26
      name LeftToeBase
      direction 0.000000 0.000000 1.000000
      length 2.952750
      axis 0.0 0.0 0.0 xyz
      dof rx ry rz
   end
   begin
      id 27
      name RightUpLeg
      direction 0.000000 -1.000000 0.000000
      length 16.346831
      axis 0.0 0.0 0.0 xyz
      dof rx ry rz
   end
   begin
      id 28
      name RightLeg
      direction 0.000000 -1.000000 0.000000
      length 13.959795
      axis 0.0 0.0 0.0 xyz
      dof rx ry rz
   end
   begin
      id 29
      name RightFoot
      direction 0.000000 -0.258819 0.965926
      length 5.165550
      axis 15.0 0.0 0.0 xyz
      dof rx ry rz
   end
   begin
      id 30
      name RightToeBase
      direction 0.000000 0.000000 1.000000
      length 2.952750
      axis 0.0 0.0 0.0 xyz
      dof rx ry rz
   end
:hierarchy
   begin
      root Spine_dum LeftUpLeg_dum RightUpLeg_dum
      Spine_dum Spine
      LeftUpLeg_dum LeftUpLeg
      RightUpLeg_dum RightUpLeg
      Spine Spine_dum1 Spine_dum2 Spine_dum3
      Spine_dum1 Head
      Spine_dum2 LeftShoulder
      Spine_dum3 RightShoulder
      LeftShoulder LeftArm
      LeftArm LeftForeArm
      LeftForeArm LeftHand
      LeftHand LeftHand_dum1 LeftHand_dum2
      LeftHand_dum1 LeftHandThumb1
      RightShoulder RightArm
      RightArm RightForeArm
      RightForeArm RightHand
      RightHand RightHand_dum1 RightHand_dum2
      RightHand_dum1 RightHandThumb1
      LeftUpLeg LeftLeg
      LeftLeg LeftFoot
      LeftFoot LeftToeBase
      RightUpLeg RightLeg
      RightLeg RightFoot
      RightFoot RightToeBase
   end

# File created by Blade
# Date/Time:  Tue Jan 27 18:05:41 2015
# Frame Rate: 120.000 fps
#------------------------------------------------------
:FULLY-SPECIFIED
:DEGREES
1
root -1.489867 31.871321 -6.655092 6.027248 7.977669 3.440598
Spine -6.209886 -7.288995 -1.306731
Head 4.035069 6.516217 1.335395
LeftShoulder -17.978728 15.596771 22.191761
LeftArm 23.508881 -19.744350 -25.283463
LeftForeArm 1.475903 -0.000000 0.480471
LeftHand -12.923126 -0.000000 -11.149632
LeftHandThumb1 -26.253704 0.000000 33.147579
RightShoulder -11.636570 5.632569 -35.725598
RightArm 17.431774 15.204735 34.131716
RightForeArm -23.312732 -0.000000 6.450808
RightHand -14.500308 -0.000000 17.200963
RightHandThumb1 -24.326973 -0.000000 -32.862282
LeftUpLeg -1.951186 -1.539671 -0.994831
LeftLeg 0.992346 -0.000000 -0.000000
LeftFoot -17.399064 16.251849 -24.693353
LeftToeBase 8.618999 -0.000000 -0.000000
RightUpLeg 1.148353 -4.306064 -3.732115
RightLeg -3.513059 -0.000000 0.000000
RightFoot -15.171378 -14.327842 10.021391
RightToeBase 5.132735 -0.000000 -0.000000
2
root -1.490239 31.871556 -6.653734 6.023408 7.969927 3.433167
Spine -6.207359 -7.287345 -1.298852
Head 4.033728 6.514849 1.312814
LeftShoulder -17.977972 15.605821 22.171326
LeftArm 23.502317 -19.743556 -25.271336
LeftForeArm 1.491441 -0.000000 0.462356
LeftHand -12.854705 -0.000000 -11.142049
LeftHandThumb1 -26.253704 0.000000 33.147579
RightShoulder -11.646466 5.541619 -35.700195
RightArm 17.524883 15.265039 34.130912
RightForeArm -23.305052 -0.000000 6.406247
RightHand -14.434030 0.000000 17.227509
RightHandThumb1 -24.326973 -0.000000 -32.862282
LeftUpLeg -1.948919 -1.521139 -0.989608
LeftLeg 1.006609 -0.000000 -0.000000
LeftFoot -17.381251 16.260382 -24.616532
LeftToeBase 8.594879 -0.000000 -0.000000
RightUpLeg 1.147835 -4.310616 -3.723924
RightLeg -3.503282 -0.000000 0.000000
RightFoot -15.173417 -14.311180 10.017274
RightToeBase 5.162424 -0.000000 -0.000000
3
root -1.490804 31.871543 -6.652199 6.024689 7.968036 3.433980
Spine -6.209361 -7.294880 -1.300360
Head 4.026987 6.521397 1.292165
LeftShoulder -17.982463 15.603612 22.172886
LeftArm 23.491523 -19.708064 -25.264959
LeftForeArm 1.497056 -0.000000 0.478804
LeftHand -12.909061 -0.000000 -11.191390
LeftHandThumb1 -26.253704 0.000000 33.147579
RightShoulder -11.646701 5.533933 -35.696562
RightArm 17.543512 15.262155 34.120780
RightForeArm -23.294798 0.000000 6.396603
RightHand -14.416811 -0.000000 17.264012
RightHandThumb1 -24.326973 -0.000000 -32.862282
LeftUpLeg -1.946013 -1.534527 -0.986870
LeftLeg 0.999919 -0.000000 -0.000000
LeftFoot -17.410135 16.252146 -24.692733
LeftToeBase 8.664252 -0.000000 -0.000000
RightUpLeg 1.155697 -4.312697 -3.722942
RightLeg -3.518518 -0.000000 0.000000
RightFoot -15.169376 -14.314121 10.008252
RightToeBase 5.237955 -0.000000 -0.000000
4
root -1.491662 31.871478 -6.651344 6.028929 7.969632 3.430468
Spine -6.215256 -7.294110 -1.299247
Head 4.028660 6.519387 1.273370
LeftShoulder -17.975465 15.596481 22.164480
LeftArm 23.486176 -19.692918 -25.250580
LeftForeArm 1.469146 -0.000000 0.462443
LeftHand -12.883400 -0.000000 -11.222635
LeftHandThumb1 -26.253704 0.000000 33.147579
RightShoulder -11.645685 5.523890 -35.703561
RightArm 17.539091 15.246020 34.118604
RightForeArm -23.296059 -0.000000 6.405393
RightHand -14.429645 -0.000000 17.276357
RightHandThumb1 -24.326973 -0.000000 -32.862282
LeftUpLeg -1.951544 -1.545081 -0.980479
LeftLeg 1.003178 -0.000000 -0.000000
LeftFoot -17.413113 16.253017 -24.706230
LeftToeBase 8.620558 -0.000000 -0.000000
RightUpLeg 1.149140 -4.305647 -3.719232
RightLeg -3.509411 -0.000000 0.000000
RightFoot -15.173753 -14.313289 10.012276
RightToeBase 5.164199 -0.000000 -0.000000
5
root -1.492134 31.870996 -6.649650 6.027094 7.962181 3.433227
Spine -6.215488 -7.291172 -1.310946
Head 4.038328 6.526476 1.270716
LeftShoulder -17.986384 15.632131 22.163604
LeftArm 23.514323 -19.726813 -25.276770
LeftForeArm 1.499305 -0.000000 0.464058
LeftHand -12.900406 -0.000000 -11.201690
LeftHandThumb1 -26.253704 0.000000 33.147579
RightShoulder -11.670751 5.515114 -35.684401
RightArm 17.601240 15.209863 34.098181
RightForeArm -23.286148 0.000000 6.367375
RightHand -14.407900 -0.000000 17.298131
RightHandThumb1 -24.326973 -0.000000 -32.862282
LeftUpLeg -1.947071 -1.541586 -0.982500
LeftLeg 1.007962 -0.000000 -0.000000
LeftFoot -17.437922 16.244690 -24.739823
LeftToeBase 8.664596 -0.000000 -0.000000
RightUpLeg 1.155370 -4.297323 -3.720347
RightLeg -3.514580 -0.000000 0.000000
RightFoot -15.174679 -14.319945 10.010384
RightToeBase 5.151614 -0.000000 -0.000000
